<?xml version="1.0" encoding="UTF-8"?>
<svg xmlns="http://www.w3.org/2000/svg" id="a" width="865.76" height="682.89" viewBox="0 0 865.76 682.89">
  <g>
    <path d="M435.8,431.87s-24.21,10.66-28.01,58l-2.77,95.65c-.12,2.66-2.31,4.76-4.98,4.77h0c-2.75,0-4.98-2.24-4.97-4.99,0-.04,0-.09,0-.13l2.75-96.54s1.91-33.21,21.3-57.28l16.67,.54Z" fill="#fff" stroke="#002346" stroke-miterlimit="10"></path>
    <path d="M435.19,594.9c-2.17,0-3.94-1.73-3.99-3.9l-2.24-105.7s-.41-37.78-22-53.97h12.17s14.39,11.62,16.69,40.68l3.37,118.78c.06,2.2-1.68,4.04-3.88,4.1-.03,0-.06,0-.1,0h-.01Z" fill="#fff" stroke="#002346" stroke-miterlimit="10"></path>
    <path d="M347.12,137.31h101.6c13.41,0,24.29,10.88,24.29,24.29v226.01h-150.18V161.6c0-13.41,10.88-24.29,24.29-24.29Z" fill="#fff" stroke="#002346" stroke-miterlimit="10"></path>
    <path d="M464.77,485.71l-2.85,6.54s3.77,16.08,22.85,22.65l4.52-11.28-23.06-14.2c-1.23-.8-1.81-2.3-1.45-3.72Z" fill="#e6e7e8" stroke="#002346" stroke-miterlimit="10"></path>
    <path d="M515.33,519.32l7.43,18.15s24.1-8.55,33.81-10.11l-7.64-21.91s-24.12,9.69-33.6,13.86Z" fill="#e6e7e8" stroke="#002346" stroke-miterlimit="10"></path>
    <rect x="159.15" y="183.37" width="133.58" height="30.81" fill="#f69074" stroke="#002346" stroke-miterlimit="10"></rect>
    <rect x="180.09" y="194.11" width="50.73" height="9.33" rx="4.4" ry="4.4" fill="#fff" stroke="#002346" stroke-miterlimit="10"></rect>
    <circle cx="250.47" cy="198.77" r="6.15" fill="#fff" stroke="#002346" stroke-miterlimit="10"></circle>
    <rect x="176.22" y="244.99" width="130.39" height="27.12" fill="#f69074" stroke="#002346" stroke-miterlimit="10"></rect>
    <rect x="197.16" y="253.88" width="48.24" height="9.33" rx="4.4" ry="4.4" fill="#fff" stroke="#002346" stroke-miterlimit="10"></rect>
    <circle cx="265.48" cy="258.4" r="6.15" fill="#fff" stroke="#002346" stroke-miterlimit="10"></circle>
    <rect x="188.2" y="214.18" width="131.42" height="30.81" fill="#fbe493" stroke="#002346" stroke-miterlimit="10"></rect>
    <rect x="250.13" y="224.92" width="48.16" height="9.33" rx="4.4" ry="4.4" fill="#fff" stroke="#002346" stroke-miterlimit="10"></rect>
    <circle cx="230.47" cy="229.58" r="6.15" fill="#fff" stroke="#002346" stroke-miterlimit="10"></circle>
    <polygon points="265.48 244.99 284.77 261.69 298.29 245.3 265.48 244.99" fill="#fff" stroke="#002346" stroke-miterlimit="10"></polygon>
    <polygon points="188.2 219.9 197.16 214.18 225.93 214.18 210.65 226.46 188.2 219.9" fill="#fff" stroke="#002346" stroke-miterlimit="10"></polygon>
    <path d="M494.1,506.27l-19.36-60.63-14.84,39.71,34.2,20.92Z" fill="#fbe493" stroke="#002346" stroke-miterlimit="10"></path>
    <path d="M299.45,409.75h173.93v22.12h-158.63c-8.45,0-15.3-6.86-15.3-15.32v-6.81h0Z" fill="#e6e7e8" stroke="#002346" stroke-miterlimit="10"></path>
    <path d="M314.94,384.84h155.95v24.91h-171.44v-9.45c.02-8.54,6.95-15.46,15.49-15.46Z" fill="#e6e7e8" stroke="#002346" stroke-miterlimit="10"></path>
    <rect x="399.27" y="308.6" width="143.24" height="21.86" rx="3.66" ry="3.66" fill="#e6e7e8" stroke="#002346" stroke-miterlimit="10"></rect>
    <path d="M481,218.71v34.27c-1.95,19.21-16.94,12.04-16.94,12.04-13.35-2.6-35.17-30.61-35.17-30.61l1.33,37.45h-102.66c-4.75,0-8.87-3.27-9.97-7.89s-1.06-9.04-1.06-9.04c-.85-18.67,11.28-66.27,17.11-83.94,1.75-5.31,4.8-10.16,9.08-13.77,5.68-4.78,12.11-6.66,20.81-9.04,12.21-3.35,26.03-2.34,36.18,5.23l.93,2.72,26.53,16.19c11.42,6.97,19.62,18.18,22.79,31.18l4.02,16.43c.61,.4,1.25,.77,1.91,1.08l.18,.11c10.85,5.24,23.68-1.68,24.85-2.32l.08-.08Z" fill="#f69074" stroke="#002346" stroke-miterlimit="10"></path>
    <path d="M387.85,251.28l-.98,20.51,39.74-3.9c6,3.64,13.53,3.64,19.54,0,0,0-.6,5.53,11.92,3.9,0,0,12.57-.85,5.52-10.11l-5.52-7.63s-2.93-4.71-17.65-.55c-17.55,1.09-35.17,.34-52.56-2.23Z" fill="#f1b2c0" stroke="#002346" stroke-miterlimit="10"></path>
    <path d="M679.15,245.19l-186.38-1.75,28.16-163.89,185.68,1.74-27.47,163.9Z" fill="#fbe493" stroke="#002346" stroke-miterlimit="10"></path>
    <polygon points="492.76 243.43 488.02 243.43 516.34 79.54 520.94 79.54 492.76 243.43" fill="#fff" stroke="#002346" stroke-miterlimit="10"></polygon>
    <path d="M598.26,168.28l17.04,79.09s4,13.81-4.77,24.42h-3.3s8.06-8.15,4.77-24.17l-16.02-77.09,2.28-2.25Z" fill="#fff" stroke="#002346" stroke-miterlimit="10"></path>
    <path d="M598.26,168.28h21.03l24.03,49.56s12.26,31.1,11.26,53.96h-44.04s8.07-9.01,4.77-24.42l-17.04-79.09Z" fill="#fbe493" stroke="#002346" stroke-miterlimit="10"></path>
    <path d="M373.49,386.77c-17.28,.11-27.51-2.78-33.09-5.24-3.79-1.69-6.72-4.86-8.09-8.77-6.89-19.31,1.81-43.31,1.81-43.31l-.58-20.83h96.69l78.75,31.84s33,11,30.11,37.06c0,0-6.36,64.27-8.1,70.64l17.95,57.32s-18.7,9.69-47.31,23.99l-43.28-135.16c-.9-2.76-3.43-4.67-6.34-4.77l-78.51-2.75Z" fill="#fbe493" stroke="#002346" stroke-miterlimit="10"></path>
    <path d="M301.43,594.9c2.17,0,3.94-1.73,3.98-3.9l4.41-103.62s5.82-39.33,27.41-55.51h-12.47s-22.01,23.52-24.3,52.59l-3.02,106.34c-.07,2.2,1.66,4.03,3.86,4.1,.04,0,.08,0,.12,0h0Z" fill="#fff" stroke="#002346" stroke-miterlimit="10"></path>
    <rect x="290.61" y="308.6" width="143.24" height="21.86" rx="3.66" ry="3.66" fill="#e6e7e8" stroke="#002346" stroke-miterlimit="10"></rect>
    <line x1="404.1" y1="326.54" x2="404.1" y2="308.6" fill="none" stroke="#002346" stroke-linecap="round" stroke-linejoin="round"></line>
    <rect x="394.36" y="330.83" width="6.34" height="100.87" fill="#fff" stroke="#002346" stroke-miterlimit="10"></rect>
    <path d="M484.77,514.85l-9.17,27.63c-1.73-3.03-5.58-4.09-8.61-2.37-.19,.11-.37,.23-.55,.35l-7.53,2.78c-15.82,4.26-13.11-28.39-13.11-28.39,11.59-9.98,15.25-20.01,15.95-22.21,.04-.14,.23-.13,.27,0,3.46,10.69,11.97,18.99,22.75,22.2Z" fill="#f1b2c0" stroke="#002346" stroke-miterlimit="10"></path>
    <path d="M486.58,589.38c-33.12,7.45-40.91-23.03-40.91-23.03l-8.41-43.48,8.59-8.02s-2.75,32.65,13.11,28.39l7.53-2.78c2.84-2.03,6.78-1.37,8.81,1.46,.13,.18,.24,.36,.35,.55l1.19,28.26c.12,2.78,1.42,5.39,3.58,7.15,2.82,2.17,5.39,4.64,7.69,7.35,.28,.34,.45,.75,.5,1.19,.21,1.37-.69,2.66-2.04,2.94Z" fill="#f69074" stroke="#002346" stroke-miterlimit="10"></path>
    <path d="M489.27,592.46c-4.02,6.53-26.33,1.5-26.33,1.5-21.78-9.54-27.41-54.33-28.46-64.53-.14-1.32,.19-2.65,.92-3.77l1.71-2.59c.05-.08,.17-.05,.19,.04l8.37,43.23s7.78,30.48,40.91,23.03c1.36-.3,2.25-1.63,2-3h0c3.21,4.08,.7,6.09,.7,6.09Z" fill="#fff" stroke="#002346" stroke-miterlimit="10"></path>
    <rect x="563.92" y="290.47" width="13.02" height="312.87" fill="#e6e7e8" stroke="#002346" stroke-miterlimit="10"></rect>
    <rect x="701.98" y="290.47" width="13.02" height="312.87" fill="#e6e7e8" stroke="#002346" stroke-miterlimit="10"></rect>
    <rect x="186.16" y="290.47" width="13.02" height="312.87" fill="#e6e7e8" stroke="#002346" stroke-miterlimit="10"></rect>
    <rect x="324.2" y="290.47" width="13.02" height="312.87" fill="#e6e7e8" stroke="#002346" stroke-miterlimit="10"></rect>
    <rect x="172.17" y="271.8" width="183.4" height="22.25" fill="#e6e7e8" stroke="#002346" stroke-miterlimit="10"></rect>
    <rect x="353.95" y="271.8" width="387.05" height="22.25" fill="#fff" stroke="#002346" stroke-miterlimit="10"></rect>
    <path d="M524.8,571.08s9.23-16.9-2.05-33.61c0,0,27.59-9.71,33.81-10.11,0,0,3.89,22.93,14.77,29.93,0,0-5.1,1.9-10.12,9.77-3.37,5.28-9.3,8.36-15.55,8.09-1.7-.08-3.4-.32-5.05-.73l-15.8-3.35Z" fill="#f1b2c0" stroke="#002346" stroke-miterlimit="10"></path>
    <path d="M619.03,586.54c-.91,6.87-55.65,1.44-55.65,1.44l-41.72-4.87c-1.81-5.78,3.16-12.01,3.16-12.01l15.82,3.34c1.99,.44,4.02,.66,6.05,.66,5.91-.05,11.4-3.06,14.61-8.02,5.21-8.02,10.05-9.77,10.05-9.77,6.46,6.92,35.41,20.75,35.41,20.75,12.81,3.8,12.26,8.5,12.26,8.5Z" fill="#f69074" stroke="#002346" stroke-miterlimit="10"></path>
    <path d="M595.36,596.66l-68.49-1.08c-11.56-1.81-5.23-12.47-5.23-12.47l41.72,4.87s49.73,4.92,55.18-.55c.15-.13,.38-.1,.5,.05,.05,.06,.08,.13,.08,.2,.12,9.98-23.77,8.97-23.77,8.97Z" fill="#fff" stroke="#002346" stroke-miterlimit="10"></path>
    <path d="M400.9,152.21l-2.02,2.22c-7.18,7.9-4.67,20.75,5.16,24.91,.12,.05,.24,.1,.36,.15,4.28,1.72,9.18,.37,12.06-3.22l10.66-13.33-26.22-10.73Z" fill="#f1b2c0" stroke="#002346" stroke-miterlimit="10"></path>
    <rect x="408.41" y="108.25" width="50.25" height="71.41" rx="25.12" ry="25.12" transform="translate(312.35 -296.49) rotate(56.25)" fill="#f1b2c0" stroke="#002346" stroke-miterlimit="10"></rect>
    <g>
      <ellipse cx="444.81" cy="100.78" rx="13" ry="12.78" transform="translate(82.43 377.71) rotate(-50.15)" fill="#002346" stroke="#002346" stroke-miterlimit="10"></ellipse>
      <ellipse cx="445.48" cy="111.7" rx="10" ry="9.83" transform="translate(74.29 382.15) rotate(-50.15)" fill="#f69074" stroke="#002346" stroke-miterlimit="10"></ellipse>
      <path d="M458.1,144.1c-3.54-.06-10.24-1.25-19.29-7.67,0,0-4.13,5.79-14.81,5.01-3.1-.23-6.22,.64-8.71,2.55-3.96,3.04-11.07,9.3-11.41,19.54,0,0-4.77-3.58-6.4-10.96,0,0-6.92,.68-12.84-4.79-2.44-2.25-3.46-5.76-2.45-8.98,1.34-4.28,5.53-10.44,17.41-17.08,0,0,37.66-26.93,57.56-10.32,0,0,10.38,6.2,14.65,16.97,4.31,10.86-6.95,26.76-15.15,30.41l1.16-4.08c.94-3.3,1.14-3.95,2.52-6.82,.14-.29,.23-.6,.26-.91h0c.16-1.54-.97-2.86-2.51-2.88Z" fill="#002346" stroke="#002346" stroke-miterlimit="10"></path>
    </g>
    <path d="M492.76,134.14v10.19c.51,6.09-3.75,9.02-3.75,9.02l-9.48,6.29c-3.84,2.54-6.54,6.55-7.2,11.1-.57,3.89-.07,7.2-.07,7.2l8.75,40.76-.08,.06c-1.19,.64-14,7.57-24.85,2.32l-.18-.11,.11-52.11c-.61-5.85,1.04-11.68,4.57-16.33,.69-.9,1.56-1.65,2.56-2.18l2.5-1.33c1.49-2.44,0-6.47,0-6.47,0-12.69,17.14-13.44,17.14-13.44l-1.76-1.19c-6.71-3.11-2.23-5.51-2.23-5.51,4.15-1.07,9.08,3.29,11.84,6.25,1.39,1.49,2.16,3.45,2.16,5.48Z" fill="#f1b2c0" stroke="#002346" stroke-miterlimit="10"></path>
    <path d="M446.15,267.9s1.24-4.84,6.01-4.84" fill="none" stroke="#002346" stroke-linecap="round" stroke-linejoin="round"></path>
    <path d="M329.98,248.16s7.15-11.92,29.8-5.96l28.07,9.08" fill="none" stroke="#002346" stroke-linecap="round" stroke-linejoin="round"></path>
    <path d="M352.93,161.57s16.39,12.69,7.28,46.66l-8.63,32.44" fill="none" stroke="#002346" stroke-linecap="round" stroke-linejoin="round"></path>
    <line x1="428.89" y1="234.41" x2="428.32" y2="205.85" fill="none" stroke="#002346" stroke-linecap="round" stroke-linejoin="round"></line>
    <line x1="453.98" y1="219.93" x2="453.35" y2="246.37" fill="none" stroke="#002346" stroke-linecap="round" stroke-linejoin="round"></line>
    <path d="M469.55,133.86s4.35-.69,5.7,4.36l1.05,7.58" fill="none" stroke="#002346" stroke-linecap="round" stroke-linejoin="round"></path>
    <path d="M476.43,130.28s4.35-.69,5.7,4.36l1.05,7.58" fill="none" stroke="#002346" stroke-linecap="round" stroke-linejoin="round"></path>
    <path d="M482.39,129.08s4.35-.69,5.7,4.36l1.05,7.58" fill="none" stroke="#002346" stroke-linecap="round" stroke-linejoin="round"></path>
    <path d="M530.98,448.14l-21.08-73.34c-2.2-7.65-8.01-13.74-15.55-16.29l-67.22-22.74" fill="none" stroke="#002346" stroke-linecap="round" stroke-linejoin="round"></path>
  </g>
  <g>
    <path d="M134.63,360.08c1.9-9.15,9.35-16.16,18.59-18.55,13.08-3.38,34.56-2.89,52.11,26.48,0,0,16.4,25.97,6.79,63.62,0,0-1.97-19.12-32.86-32.8-3.41-1.51-6.94-2.75-10.51-3.83-9.65-2.92-38.56-13.54-34.12-34.92Z" fill="#7cd194" stroke="#002346" stroke-miterlimit="10"></path>
    <path d="M245.38,328.1c-4.18,.78-8.01,2.92-10.56,6.25-4.97,6.49-8.73,20.08,4.05,47.35,0,0,18.85,38.88-11.97,85.28,0,0,49.72-21.67,62.27-67.54,4.34-15.87,3.09-32.81-3.9-47.76-6.33-13.52-18.23-27.63-39.89-23.59Z" fill="#7cd194" stroke="#002346" stroke-miterlimit="10"></path>
    <path d="M217.57,529.13s-24.11-34.77,17.5-69.93c.94-.79,1.9-1.54,2.87-2.29,7.85-6.08,55.2-46.06,22.6-102.03" fill="none" stroke="#002346" stroke-linecap="round" stroke-linejoin="round"></path>
    <path d="M182.74,368.57s44.03,28.47,24.93,78.76c0,0-21.25,51.35,1.31,80.74" fill="none" stroke="#002346" stroke-linecap="round" stroke-linejoin="round"></path>
    <path d="M124.76,449.27c.05-5.8,3.76-10.94,9.11-13.43,7.55-3.52,20.69-5.64,34.8,10.31,0,0,12.79,13.76,11.55,37.39,0,.12-.17,.15-.22,.04-.93-2.25-5.78-11.52-23.62-15.81-2.25-.54-4.53-.9-6.83-1.16-6.19-.7-24.92-3.94-24.81-17.34Z" fill="#7cd194" stroke="#002346" stroke-miterlimit="10"></path>
    <path d="M256.24,477.69s30.1-23.44,61.78-.7c0,0,14.65,10.79,10.78,22.24-1.54,4.57-5.77,7.72-10.63,8.52-6.32,1.04-17.08,.72-28.65-8.78,0,0-25.71-19.25-33.29-21.28Z" fill="#7cd194" stroke="#002346" stroke-miterlimit="10"></path>
    <path d="M224.55,528.6s4.3-72.43,75.2-49.34" fill="none" stroke="#002346" stroke-linecap="round" stroke-linejoin="round"></path>
    <polygon points="243.89 603.13 177.28 603.13 172.98 526.5 248.19 526.5 243.89 603.13" fill="#fff" stroke="#002346" stroke-miterlimit="10"></polygon>
    <path d="M175.13,557.47c4.36-2.04,10.9-4.36,18.8-4.2,7.71,.16,12.58,2.59,17.74,4.2,7.42,2.31,18.56,3.88,34.37,0" fill="none" stroke="#002346" stroke-linecap="round" stroke-linejoin="round"></path>
    <path d="M175.13,566.91c4.36-2.04,10.9-4.36,18.8-4.2,7.71,.16,12.58,2.59,17.74,4.2,7.42,2.31,18.56,3.88,34.37,0" fill="none" stroke="#002346" stroke-linecap="round" stroke-linejoin="round"></path>
    <path d="M154.72,453.02s29.01,11.55,36.53,73.48" fill="none" stroke="#002346" stroke-linecap="round" stroke-linejoin="round"></path>
  </g>
</svg>
